<?xml version="1.0" encoding="UTF-8"?>
<svg width="938px" height="89px" viewBox="0 0 938 89" version="1.1" xmlns="http://www.w3.org/2000/svg" xmlns:xlink="http://www.w3.org/1999/xlink">
    <!-- Generator: Sketch 55.2 (78181) - https://sketchapp.com -->
    <title>Group</title>
    <desc>Created with Sketch.</desc>
    <g id="Page-1" stroke="none" stroke-width="1" fill="none" fill-rule="evenodd">
        <g id="Desktop-HD" transform="translate(-47.000000, -163.000000)" fill="#FFFFFF">
            <g id="Group" transform="translate(47.000000, 163.000000)">
                <polygon id="Path-2" points="117.266598 87 117.266598 75.9030454 96.0030959 75.9030454 87.5516924 65.942929 105.714325 65.942929 105.714325 54.8182336 66.1877781 54.8182336 58.2651911 46.3023565 95.4644864 46.3023565 95.4644864 35.2084498 35.9866748 35.2084498 26.4769122 25.1069541 128.826126 25.1069541 128.826126 87 202.451764 87 221.76683 65.942929 232.933194 65.942929 253.27006 46.3023565 262.617888 46.3023565 296 14 213.138443 14 213.138443 25.1069541 268.346304 25.1069541 258.290753 35.2084498 200.878928 35.2084498 200.878928 46.3023565 237.260503 46.3023565 228.342871 54.8182336 190.357507 54.8182336 190.357507 65.942929 206.608919 65.942929 197.672225 75.9030454 139.691003 75.9030454 139.691003 14 0 14 31.232493 46.3023565 42.8131384 46.3023565 61.8204223 65.942929 72.7839299 65.942929 91.133155 87"></polygon>
                <path d="M380.25,87 L380.25,8.76 L397.89,8.76 L397.89,72.12 L428.85,72.12 L428.85,87 L380.25,87 Z M454.47,88.44 C451.749986,88.44 449.290011,87.9800046 447.09,87.06 C444.889989,86.1399954 443.030008,84.8600082 441.51,83.22 C439.989992,81.5799918 438.810004,79.6800108 437.97,77.52 C437.129996,75.3599892 436.71,73.0000128 436.71,70.44 C436.71,64.1999688 439.349974,59.3200176 444.63,55.8 C449.910026,52.2799824 458.429941,49.920006 470.19,48.72 C470.029999,46.0799868 469.250007,43.9800078 467.85,42.42 C466.449993,40.8599922 464.110016,40.08 460.83,40.08 C458.269987,40.08 455.730013,40.5599952 453.21,41.52 C450.689987,42.4800048 447.990014,43.7999916 445.11,45.48 L438.75,33.84 C442.590019,31.5199884 446.609979,29.6400072 450.81,28.2 C455.010021,26.7599928 459.469976,26.04 464.19,26.04 C471.870038,26.04 477.72998,28.2199782 481.77,32.58 C485.81002,36.9400218 487.83,43.719954 487.83,52.92 L487.83,87 L473.43,87 L472.23,80.88 L471.75,80.88 C469.189987,83.1200112 466.510014,84.939993 463.71,86.34 C460.909986,87.740007 457.830017,88.44 454.47,88.44 Z M460.47,74.76 C462.47001,74.76 464.189993,74.3200044 465.63,73.44 C467.070007,72.5599956 468.589992,71.320008 470.19,69.72 L470.19,59.28 C463.949969,60.1600044 459.630012,61.4399916 457.23,63.12 C454.829988,64.8000084 453.63,66.7999884 453.63,69.12 C453.63,71.0400096 454.249994,72.4599954 455.49,73.38 C456.730006,74.3000046 458.38999,74.76 460.47,74.76 Z M519.09,88.44 C512.609968,88.44 507.910015,86.3200212 504.99,82.08 C502.069985,77.8399788 500.61,71.9600376 500.61,64.44 L500.61,27.48 L518.25,27.48 L518.25,62.16 C518.25,66.4800216 518.849994,69.439992 520.05,71.04 C521.250006,72.640008 523.129987,73.44 525.69,73.44 C527.930011,73.44 529.809992,72.9200052 531.33,71.88 C532.850008,70.8399948 534.489991,69.1600116 536.25,66.84 L536.25,27.48 L553.89,27.48 L553.89,87 L539.49,87 L538.17,78.72 L537.81,78.72 C535.249987,81.7600152 532.510015,84.1399914 529.59,85.86 C526.669985,87.5800086 523.17002,88.44 519.09,88.44 Z M567.87,87 L567.87,27.48 L582.27,27.48 L583.47,37.92 L583.95,37.92 C586.110011,33.8399796 588.709985,30.8400096 591.75,28.92 C594.790015,26.9999904 597.829985,26.04 600.87,26.04 C602.550008,26.04 603.929995,26.139999 605.01,26.34 C606.090005,26.54 607.069996,26.839998 607.95,27.24 L605.07,42.48 C603.949994,42.1599984 602.910005,41.9200008 601.95,41.76 C600.989995,41.5999992 599.87,41.52 598.59,41.52 C596.349989,41.52 594.010012,42.319992 591.57,43.92 C589.129988,45.520008 587.110008,48.3599796 585.51,52.44 L585.51,87 L567.87,87 Z M638.49,88.44 C634.729981,88.44 631.090018,87.740007 627.57,86.34 C624.049982,84.939993 620.950013,82.9200132 618.27,80.28 C615.589987,77.6399868 613.45,74.3800194 611.85,70.5 C610.249992,66.6199806 609.45,62.2000248 609.45,57.24 C609.45,52.2799752 610.249992,47.8600194 611.85,43.98 C613.45,40.0999806 615.589987,36.8400132 618.27,34.2 C620.950013,31.5599868 624.049982,29.54 627.57,28.14 C631.090018,26.739993 634.729981,26.04 638.49,26.04 C642.250019,26.04 645.869983,26.739993 649.35,28.14 C652.830017,29.54 655.909987,31.5599868 658.59,34.2 C661.270013,36.8400132 663.409992,40.0999806 665.01,43.98 C666.610008,47.8600194 667.41,52.2799752 667.41,57.24 C667.41,62.2000248 666.610008,66.6199806 665.01,70.5 C663.409992,74.3800194 661.270013,77.6399868 658.59,80.28 C655.909987,82.9200132 652.830017,84.939993 649.35,86.34 C645.869983,87.740007 642.250019,88.44 638.49,88.44 Z M638.49,74.16 C642.090018,74.16 644.809991,72.6400152 646.65,69.6 C648.490009,66.5599848 649.41,62.440026 649.41,57.24 C649.41,52.039974 648.490009,47.9200152 646.65,44.88 C644.809991,41.8399848 642.090018,40.32 638.49,40.32 C634.809982,40.32 632.07,41.8399848 630.27,44.88 C628.469991,47.9200152 627.57,52.039974 627.57,57.24 C627.57,62.440026 628.469991,66.5599848 630.27,69.6 C632.07,72.6400152 634.809982,74.16 638.49,74.16 Z M725.85,88.44 C720.729974,88.44 715.630025,87.5000094 710.55,85.62 C705.469975,83.7399906 700.93002,80.9200188 696.93,77.16 L707.01,65.04 C709.810014,67.440012 712.909983,69.3999924 716.31,70.92 C719.710017,72.4400076 723.049984,73.2 726.33,73.2 C730.010018,73.2 732.749991,72.5200068 734.55,71.16 C736.350009,69.7999932 737.25,67.9600116 737.25,65.64 C737.25,64.439994 736.990003,63.4000044 736.47,62.52 C735.949997,61.6399956 735.190005,60.8600034 734.19,60.18 C733.189995,59.4999966 731.990007,58.860003 730.59,58.26 L725.97,56.28 L715.77,51.96 C713.76999,51.159996 711.830009,50.1200064 709.95,48.84 C708.069991,47.5599936 706.390007,46.0600086 704.91,44.34 C703.43,42.6199914 702.250004,40.6200114 701.37,38.34 C700.489996,36.0599886 700.05,33.4800144 700.05,30.6 C700.05,27.399984 700.729993,24.3800142 702.09,21.54 C703.450007,18.6999858 705.369988,16.2200106 707.85,14.1 C710.330012,11.9799894 713.269983,10.32 716.67,9.12 C720.070017,7.919994 723.80998,7.32 727.89,7.32 C732.450023,7.32 736.949978,8.1999912 741.39,9.96 C745.830022,11.7200088 749.729983,14.2799832 753.09,17.64 L744.09,28.8 C741.529987,26.79999 738.970013,25.2600054 736.41,24.18 C733.849987,23.0999946 731.010016,22.56 727.89,22.56 C724.849985,22.56 722.43,23.1799938 720.63,24.42 C718.829991,25.6600062 717.93,27.3999888 717.93,29.64 C717.93,30.840006 718.229997,31.8599958 718.83,32.7 C719.43,33.5400042 720.269995,34.2999966 721.35,34.98 C722.43,35.6600034 723.689993,36.299997 725.13,36.9 C726.570007,37.500003 728.129992,38.1599964 729.81,38.88 L739.89,42.96 C744.690024,44.8800096 748.469986,47.5199832 751.23,50.88 C753.990014,54.2400168 755.37,58.6799724 755.37,64.2 C755.37,67.4800164 754.710007,70.5799854 753.39,73.5 C752.069993,76.4200146 750.150013,78.979989 747.63,81.18 C745.109987,83.380011 742.010018,85.1399934 738.33,86.46 C734.649982,87.7800066 730.490023,88.44 725.85,88.44 Z M765.75,87 L765.75,27.48 L783.39,27.48 L783.39,87 L765.75,87 Z M774.51,18.72 C771.549985,18.72 769.11001,17.86 767.19,16.14 C765.26999,14.4199914 764.31,12.2000136 764.31,9.48 C764.31,6.7599864 765.26999,4.5600084 767.19,2.88 C769.11001,1.1999916 771.549985,0.36 774.51,0.36 C777.550015,0.36 780.009991,1.1999916 781.89,2.88 C783.770009,4.5600084 784.71,6.7599864 784.71,9.48 C784.71,12.2000136 783.770009,14.4199914 781.89,16.14 C780.009991,17.86 777.550015,18.72 774.51,18.72 Z M813.57,88.44 C810.529985,88.44 807.97001,87.9600048 805.89,87 C803.80999,86.0399952 802.150006,84.7000086 800.91,82.98 C799.669994,81.2599914 798.770003,79.1800122 798.21,76.74 C797.649997,74.2999878 797.37,71.5600152 797.37,68.52 L797.37,2.88 L815.01,2.88 L815.01,69.24 C815.01,71.0800092 815.349997,72.3599964 816.03,73.08 C816.710003,73.8000036 817.409996,74.16 818.13,74.16 L819.15,74.16 C819.430001,74.16 819.809998,74.0800008 820.29,73.92 L822.45,87 C821.489995,87.400002 820.270007,87.7399986 818.79,88.02 C817.309993,88.3000014 815.57001,88.44 813.57,88.44 Z M843.87,87 L823.83,27.48 L841.59,27.48 L849.27,55.56 C850.070004,58.5200148 850.849996,61.5399846 851.61,64.62 C852.370004,67.7000154 853.149996,70.7999844 853.95,73.92 L854.43,73.92 C855.150004,70.7999844 855.889996,67.7000154 856.65,64.62 C857.410004,61.5399846 858.189996,58.5200148 858.99,55.56 L866.79,27.48 L883.71,27.48 L864.27,87 L843.87,87 Z M904.05,88.44 C901.329986,88.44 898.870011,87.9800046 896.67,87.06 C894.469989,86.1399954 892.610008,84.8600082 891.09,83.22 C889.569992,81.5799918 888.390004,79.6800108 887.55,77.52 C886.709996,75.3599892 886.29,73.0000128 886.29,70.44 C886.29,64.1999688 888.929974,59.3200176 894.21,55.8 C899.490026,52.2799824 908.009941,49.920006 919.77,48.72 C919.609999,46.0799868 918.830007,43.9800078 917.43,42.42 C916.029993,40.8599922 913.690016,40.08 910.41,40.08 C907.849987,40.08 905.310013,40.5599952 902.79,41.52 C900.269987,42.4800048 897.570014,43.7999916 894.69,45.48 L888.33,33.84 C892.170019,31.5199884 896.189979,29.6400072 900.39,28.2 C904.590021,26.7599928 909.049976,26.04 913.77,26.04 C921.450038,26.04 927.30998,28.2199782 931.35,32.58 C935.39002,36.9400218 937.41,43.719954 937.41,52.92 L937.41,87 L923.01,87 L921.81,80.88 L921.33,80.88 C918.769987,83.1200112 916.090014,84.939993 913.29,86.34 C910.489986,87.740007 907.410017,88.44 904.05,88.44 Z M910.05,74.76 C912.05001,74.76 913.769993,74.3200044 915.21,73.44 C916.650007,72.5599956 918.169992,71.320008 919.77,69.72 L919.77,59.28 C913.529969,60.1600044 909.210012,61.4399916 906.81,63.12 C904.409988,64.8000084 903.21,66.7999884 903.21,69.12 C903.21,71.0400096 903.829994,72.4599954 905.07,73.38 C906.310006,74.3000046 907.96999,74.76 910.05,74.76 Z" id="LauroSilva" fill-rule="nonzero"></path>
            </g>
        </g>
    </g>
</svg>