<?xml version="1.0" encoding="UTF-8"?>
<svg viewBox="0 0 361 89" version="1.1" xmlns="http://www.w3.org/2000/svg" xmlns:xlink="http://www.w3.org/1999/xlink">
    <!-- Generator: Sketch 55.2 (78181) - https://sketchapp.com -->
    <title>Path 2</title>
    <desc>Created with Sketch.</desc>
    <g id="Page-1" stroke="none" stroke-width="1" fill="none" fill-rule="evenodd">
        <g id="Desktop-HD" transform="translate(-27.000000, -163.000000)" fill="#FFFFFF">
            <polygon id="Path-2" points="170.017709 252 170.017709 238.470836 144.084857 238.470836 133.777571 226.327681 155.928619 226.327681 155.928619 212.764696 107.722256 212.764696 98.0599121 202.382325 143.427972 202.382325 143.427972 188.856877 70.889154 188.856877 59.291099 176.541355 184.115646 176.541355 184.115646 252 273.909077 252 297.465627 226.327681 311.084064 226.327681 335.886797 202.382325 347.287356 202.382325 388 163 286.942493 163 286.942493 176.541355 354.273702 176.541355 342.010007 188.856877 271.990855 188.856877 271.990855 202.382325 316.361627 202.382325 305.485731 212.764696 259.158987 212.764696 259.158987 226.327681 278.97912 226.327681 268.079977 238.470836 197.366392 238.470836 197.366392 163 27 163 65.0909796 202.382325 79.2146722 202.382325 102.395853 226.327681 115.766888 226.327681 138.145503 252"></polygon>
        </g>
    </g>
</svg>