<?xml version="1.0" encoding="UTF-8"?>
<svg width="946px" height="135px" viewBox="0 0 946 135" version="1.1" xmlns="http://www.w3.org/2000/svg" xmlns:xlink="http://www.w3.org/1999/xlink">
    <!-- Generator: Sketch 55.2 (78181) - https://sketchapp.com -->
    <title>Group</title>
    <desc>Created with Sketch.</desc>
    <g id="Page-1" stroke="none" stroke-width="1" fill="none" fill-rule="evenodd">
        <g id="Desktop-HD" transform="translate(-210.000000, -151.000000)" fill-rule="nonzero">
            <g id="Group" transform="translate(210.000000, 130.000000)">
                <g id="Group-3" transform="translate(0.000000, 21.000000)" fill="#FF3B3B">
                    <g id="Group-2">
                        <polygon id="Path" transform="translate(42.000000, 67.500000) scale(1, -1) translate(-42.000000, -67.500000) " points="0 0 83.8831658 135 84 133.853535 84 34.2"></polygon>
                        <polygon id="Path" transform="translate(125.000000, 67.500000) scale(1, -1) translate(-125.000000, -67.500000) " points="167 0 83 135 83 133.390645 83 34.2"></polygon>
                    </g>
                </g>
                <path d="M215.33,123 L215.33,39.24 L233.57,39.24 L233.57,106.8 L265.49,106.8 L265.49,123 L215.33,123 Z M331.07,123 L325.07,103.08 L297.11,103.08 L291.11,123 L272.63,123 L300.23,39.24 L322.79,39.24 L350.03,123 L331.07,123 Z M311.27,55.8 L310.67,55.8 L301.43,87.6 L320.63,87.6 L311.27,55.8 Z M374.57,39.24 L374.57,90.6 C374.57,96.5200296 375.729988,100.939985 378.05,103.86 C380.370012,106.780015 384.249973,108.24 389.69,108.24 C395.130027,108.24 399.009988,106.780015 401.33,103.86 C403.650012,100.939985 404.81,96.5200296 404.81,90.6 L404.81,39.24 L422.57,39.24 L422.57,88.68 C422.57,94.8400308 421.990006,100.179977 420.83,104.7 C419.669994,109.220023 417.770013,112.939985 415.13,115.86 C412.489987,118.780015 409.090021,120.939993 404.93,122.34 C400.769979,123.74 395.69003,124.44 389.69,124.44 C383.68997,124.44 378.610021,123.74 374.45,122.34 C370.289979,120.939993 366.890013,118.780015 364.25,115.86 C361.609987,112.939985 359.710006,109.220023 358.55,104.7 C357.389994,100.179977 356.81,94.8400308 356.81,88.68 L356.81,39.24 L374.57,39.24 Z M457.31,123 L439.07,123 L439.07,39.24 L478.79,39.24 C482.630019,39.24 486.109984,39.8799936 489.23,41.16 C492.350016,42.4400064 495.009989,44.2599882 497.21,46.62 C499.410011,48.9800118 501.109994,51.7999836 502.31,55.08 C503.510006,58.3600164 504.11,61.99998 504.11,66 C504.11,71.6800284 502.850013,76.6399788 500.33,80.88 C497.809987,85.1200212 493.990026,88.1999904 488.87,90.12 L505.31,123 L485.03,123 L470.39,92.28 L457.31,92.28 L457.31,123 Z M476.51,76.92 C479.230014,76.92 481.369992,76.220007 482.93,74.82 C484.490008,73.419993 485.27,71.3600136 485.27,68.64 L485.27,63.36 C485.27,60.6399864 484.490008,58.58 482.93,57.18 C481.369992,55.779993 479.230014,55.08 476.51,55.08 L457.31,55.08 L457.31,76.92 L476.51,76.92 Z M550.85,124.44 C545.329972,124.44 540.290023,123.520009 535.73,121.68 C531.169977,119.839991 527.290016,117.100018 524.09,113.46 C520.889984,109.819982 518.410009,105.300027 516.65,99.9 C514.889991,94.499973 514.01,88.2400356 514.01,81.12 C514.01,73.9999644 514.889991,67.740027 516.65,62.34 C518.410009,56.939973 520.889984,52.4200182 524.09,48.78 C527.290016,45.1399818 531.169977,42.4000092 535.73,40.56 C540.290023,38.7199908 545.329972,37.8 550.85,37.8 C556.370028,37.8 561.409977,38.7199908 565.97,40.56 C570.530023,42.4000092 574.409984,45.1399818 577.61,48.78 C580.810016,52.4200182 583.289991,56.939973 585.05,62.34 C586.810009,67.740027 587.69,73.9999644 587.69,81.12 C587.69,88.2400356 586.810009,94.499973 585.05,99.9 C583.289991,105.300027 580.810016,109.819982 577.61,113.46 C574.409984,117.100018 570.530023,119.839991 565.97,121.68 C561.409977,123.520009 556.370028,124.44 550.85,124.44 Z M550.85,108.24 C556.370028,108.24 560.669985,106.440018 563.75,102.84 C566.830015,99.239982 568.37,94.0800336 568.37,87.36 L568.37,74.88 C568.37,68.1599664 566.830015,63.000018 563.75,59.4 C560.669985,55.799982 556.370028,54 550.85,54 C545.329972,54 541.030015,55.799982 537.95,59.4 C534.869985,63.000018 533.33,68.1599664 533.33,74.88 L533.33,87.36 C533.33,94.0800336 534.869985,99.239982 537.95,102.84 C541.030015,106.440018 545.329972,108.24 550.85,108.24 Z M655.37,124.44 C648.009963,124.44 641.770026,123.180013 636.65,120.66 C631.529974,118.139987 627.170018,114.88002 623.57,110.88 L635.57,98.76 C641.250028,105.160032 648.249958,108.36 656.57,108.36 C661.050022,108.36 664.369989,107.440009 666.53,105.6 C668.690011,103.759991 669.77,101.320015 669.77,98.28 C669.77,95.9599884 669.130006,94.0200078 667.85,92.46 C666.57,90.8999922 663.97002,89.8400028 660.05,89.28 L651.77,88.2 C642.889956,87.0799944 636.390021,84.4000212 632.27,80.16 C628.149979,75.9199788 626.09,70.2800352 626.09,63.24 C626.09,59.4799812 626.809993,56.0400156 628.25,52.92 C629.690007,49.7999844 631.749987,47.1200112 634.43,44.88 C637.110013,42.6399888 640.389981,40.9000062 644.27,39.66 C648.150019,38.4199938 652.569975,37.8 657.53,37.8 C663.850032,37.8 669.409976,38.8 674.21,40.8 C679.010024,42.8 683.129983,45.7199808 686.57,49.56 L674.45,61.8 C672.44999,59.4799884 670.030014,57.5800074 667.19,56.1 C664.349986,54.6199926 660.770022,53.88 656.45,53.88 C652.36998,53.88 649.33001,54.5999928 647.33,56.04 C645.32999,57.4800072 644.33,59.4799872 644.33,62.04 C644.33,64.9200144 645.109992,66.9999936 646.67,68.28 C648.230008,69.5600064 650.769982,70.4799972 654.29,71.04 L662.57,72.36 C671.210043,73.7200068 677.609979,76.3799802 681.77,80.34 C685.930021,84.3000198 688.01,89.9199636 688.01,97.2 C688.01,101.20002 687.290007,104.879983 685.85,108.24 C684.409993,111.600017 682.310014,114.479988 679.55,116.88 C676.789986,119.280012 673.37002,121.139993 669.29,122.46 C665.20998,123.780007 660.570026,124.44 655.37,124.44 Z M698.39,123 L698.39,108.48 L709.19,108.48 L709.19,53.76 L698.39,53.76 L698.39,39.24 L738.23,39.24 L738.23,53.76 L727.43,53.76 L727.43,108.48 L738.23,108.48 L738.23,123 L698.39,123 Z M751.97,123 L751.97,39.24 L770.21,39.24 L770.21,106.8 L802.13,106.8 L802.13,123 L751.97,123 Z M824.87,123 L797.87,39.24 L816.35,39.24 L828.83,79.44 L835.43,105.72 L835.79,105.72 L842.15,79.44 L854.63,39.24 L872.51,39.24 L845.27,123 L824.87,123 Z M927.05,123 L921.05,103.08 L893.09,103.08 L887.09,123 L868.61,123 L896.21,39.24 L918.77,39.24 L946.01,123 L927.05,123 Z M907.25,55.8 L906.65,55.8 L897.41,87.6 L916.61,87.6 L907.25,55.8 Z" id="LAUROSILVA" fill="#FFFFFF"></path>
            </g>
        </g>
    </g>
</svg>