<?xml version="1.0" encoding="UTF-8"?>
<svg width="938px" height="89px" viewBox="0 0 938 89" version="1.1" xmlns="http://www.w3.org/2000/svg" xmlns:xlink="http://www.w3.org/1999/xlink">
    <!-- Generator: Sketch 55.2 (78181) - https://sketchapp.com -->
    <title>Group</title>
    <desc>Created with Sketch.</desc>
    <g id="Page-1" stroke="none" stroke-width="1" fill="none" fill-rule="evenodd">
        <g id="Desktop-HD" transform="translate(-47.000000, -163.000000)" fill="#FFFFFF">
            <g id="Group" transform="translate(47.000000, 132.000000)">
                <polygon id="Path-2" points="117.266598 118 117.266598 106.903045 96.0030959 106.903045 87.5516924 96.942929 105.714325 96.942929 105.714325 85.8182336 66.1877781 85.8182336 58.2651911 77.3023565 95.4644864 77.3023565 95.4644864 66.2084498 35.9866748 66.2084498 26.4769122 56.1069541 128.826126 56.1069541 128.826126 118 202.451764 118 221.76683 96.942929 232.933194 96.942929 253.27006 77.3023565 262.617888 77.3023565 296 45 213.138443 45 213.138443 56.1069541 268.346304 56.1069541 258.290753 66.2084498 200.878928 66.2084498 200.878928 77.3023565 237.260503 77.3023565 228.342871 85.8182336 190.357507 85.8182336 190.357507 96.942929 206.608919 96.942929 197.672225 106.903045 139.691003 106.903045 139.691003 45 0 45 31.232493 77.3023565 42.8131384 77.3023565 61.8204223 96.942929 72.7839299 96.942929 91.133155 118"></polygon>
                <text id="Lauro-Silva" font-family="SourceSansPro-Bold, Source Sans Pro" font-size="120" font-weight="bold" letter-spacing="-1.5">
                    <tspan x="371.01" y="118">Lauro Silva</tspan>
                </text>
            </g>
        </g>
    </g>
</svg>